<svg width="45" height="45" viewBox="0 0 45 45" fill="none" xmlns="http://www.w3.org/2000/svg">
<g id="Property 1=Component 12">
<path id="Vector" d="M22.75 41.5C20.1562 41.5 17.7188 41.0078 15.4375 40.0234C13.1562 39.0391 11.1719 37.7031 9.48438 36.0156C7.79688 34.3281 6.46094 32.3438 5.47656 30.0625C4.49219 27.7812 4 25.3438 4 22.75C4 20.1562 4.49219 17.7188 5.47656 15.4375C6.46094 13.1562 7.79688 11.1719 9.48438 9.48438C11.1719 7.79688 13.1562 6.46094 15.4375 5.47656C17.7188 4.49219 20.1562 4 22.75 4C24.7812 4 26.7031 4.29688 28.5156 4.89062C30.3281 5.48438 32 6.3125 33.5312 7.375L30.8125 10.1406C29.625 9.39062 28.3594 8.80469 27.0156 8.38281C25.6719 7.96094 24.25 7.75 22.75 7.75C18.5938 7.75 15.0547 9.21094 12.1328 12.1328C9.21094 15.0547 7.75 18.5938 7.75 22.75C7.75 26.9062 9.21094 30.4453 12.1328 33.3672C15.0547 36.2891 18.5938 37.75 22.75 37.75C26.9062 37.75 30.4453 36.2891 33.3672 33.3672C36.2891 30.4453 37.75 26.9062 37.75 22.75C37.75 22.1875 37.7188 21.625 37.6562 21.0625C37.5938 20.5 37.5 19.9531 37.375 19.4219L40.4219 16.375C40.7656 17.375 41.0312 18.4062 41.2188 19.4688C41.4062 20.5312 41.5 21.625 41.5 22.75C41.5 25.3438 41.0078 27.7812 40.0234 30.0625C39.0391 32.3438 37.7031 34.3281 36.0156 36.0156C34.3281 37.7031 32.3438 39.0391 30.0625 40.0234C27.7812 41.0078 25.3438 41.5 22.75 41.5ZM20.125 31.375L12.1562 23.4062L14.7812 20.7812L20.125 26.125L38.875 7.32812L41.5 9.95312L20.125 31.375Z" fill="#90EE90"/>
</g>
</svg>
