<svg xmlns="http://www.w3.org/2000/svg" fill="none" viewBox="6.67 5 26.67 30">
<g id="delete_FILL0_wght400_GRAD0_opsz24 1">
<path id="Vector" d="M11.6667 35C10.75 35 9.96528 34.6736 9.3125 34.0208C8.65972 33.3681 8.33333 32.5833 8.33333 31.6667V10C7.86111 10 7.46528 9.84028 7.14583 9.52083C6.82639 9.20139 6.66667 8.80556 6.66667 8.33333C6.66667 7.86111 6.82639 7.46528 7.14583 7.14583C7.46528 6.82639 7.86111 6.66667 8.33333 6.66667H15C15 6.19444 15.1597 5.79861 15.4792 5.47917C15.7986 5.15972 16.1944 5 16.6667 5H23.3333C23.8056 5 24.2014 5.15972 24.5208 5.47917C24.8403 5.79861 25 6.19444 25 6.66667H31.6667C32.1389 6.66667 32.5347 6.82639 32.8542 7.14583C33.1736 7.46528 33.3333 7.86111 33.3333 8.33333C33.3333 8.80556 33.1736 9.20139 32.8542 9.52083C32.5347 9.84028 32.1389 10 31.6667 10V31.6667C31.6667 32.5833 31.3403 33.3681 30.6875 34.0208C30.0347 34.6736 29.25 35 28.3333 35H11.6667ZM28.3333 10H11.6667V31.6667H28.3333V10ZM16.6667 28.3333C17.1389 28.3333 17.5347 28.1736 17.8542 27.8542C18.1736 27.5347 18.3333 27.1389 18.3333 26.6667V15C18.3333 14.5278 18.1736 14.1319 17.8542 13.8125C17.5347 13.4931 17.1389 13.3333 16.6667 13.3333C16.1944 13.3333 15.7986 13.4931 15.4792 13.8125C15.1597 14.1319 15 14.5278 15 15V26.6667C15 27.1389 15.1597 27.5347 15.4792 27.8542C15.7986 28.1736 16.1944 28.3333 16.6667 28.3333ZM23.3333 28.3333C23.8056 28.3333 24.2014 28.1736 24.5208 27.8542C24.8403 27.5347 25 27.1389 25 26.6667V15C25 14.5278 24.8403 14.1319 24.5208 13.8125C24.2014 13.4931 23.8056 13.3333 23.3333 13.3333C22.8611 13.3333 22.4653 13.4931 22.1458 13.8125C21.8264 14.1319 21.6667 14.5278 21.6667 15V26.6667C21.6667 27.1389 21.8264 27.5347 22.1458 27.8542C22.4653 28.1736 22.8611 28.3333 23.3333 28.3333Z" fill="currentColor"/>
</g>
</svg>