<svg viewBox="0 0 35 35" fill="none" xmlns="http://www.w3.org/2000/svg">
<g id="more_vert_FILL0_wght400_GRAD0_opsz24 1">
<path id="Vector" d="M17.5 29.1667C16.698 29.1667 16.0113 28.8811 15.4401 28.3099C14.869 27.7387 14.5834 27.0521 14.5834 26.25C14.5834 25.4479 14.869 24.7613 15.4401 24.1901C16.0113 23.6189 16.698 23.3333 17.5 23.3333C18.3021 23.3333 18.9888 23.6189 19.5599 24.1901C20.1311 24.7613 20.4167 25.4479 20.4167 26.25C20.4167 27.0521 20.1311 27.7387 19.5599 28.3099C18.9888 28.8811 18.3021 29.1667 17.5 29.1667ZM17.5 20.4167C16.698 20.4167 16.0113 20.1311 15.4401 19.5599C14.869 18.9887 14.5834 18.3021 14.5834 17.5C14.5834 16.6979 14.869 16.0113 15.4401 15.4401C16.0113 14.8689 16.698 14.5833 17.5 14.5833C18.3021 14.5833 18.9888 14.8689 19.5599 15.4401C20.1311 16.0113 20.4167 16.6979 20.4167 17.5C20.4167 18.3021 20.1311 18.9887 19.5599 19.5599C18.9888 20.1311 18.3021 20.4167 17.5 20.4167ZM17.5 11.6667C16.698 11.6667 16.0113 11.3811 15.4401 10.8099C14.869 10.2387 14.5834 9.55208 14.5834 8.75C14.5834 7.94791 14.869 7.26128 15.4401 6.6901C16.0113 6.11892 16.698 5.83333 17.5 5.83333C18.3021 5.83333 18.9888 6.11892 19.5599 6.6901C20.1311 7.26128 20.4167 7.94791 20.4167 8.75C20.4167 9.55208 20.1311 10.2387 19.5599 10.8099C18.9888 11.3811 18.3021 11.6667 17.5 11.6667Z" fill="currentColor"/>
</g>
</svg>
