<svg viewBox="0 0 45 45" fill="none" xmlns="http://www.w3.org/2000/svg">
<path d="M5.73749 24.375C6.19764 28.4885 8.1536 32.2894 11.2334 35.0549C14.3131 37.8204 18.3019 39.3575 22.441 39.3739C26.5802 39.3903 30.581 37.8848 33.6826 35.1438C36.7842 32.4028 38.7702 28.6175 39.2629 24.5078C39.7556 20.398 38.7207 16.2505 36.3549 12.8541C33.9892 9.4576 30.4576 7.04908 26.4319 6.08657C22.4062 5.12407 18.1672 5.67471 14.521 7.63378C10.8747 9.59285 8.07573 12.8237 6.65624 16.7119" stroke="#FF6961" stroke-width="3" stroke-linecap="round" stroke-linejoin="round"/>
<path d="M5.625 7.50189V16.8769H15M20.625 22.5C20.625 22.9973 20.8225 23.4742 21.1742 23.8258C21.5258 24.1775 22.0027 24.375 22.5 24.375C22.9973 24.375 23.4742 24.1775 23.8258 23.8258C24.1775 23.4742 24.375 22.9973 24.375 22.5C24.375 22.0027 24.1775 21.5258 23.8258 21.1742C23.4742 20.8226 22.9973 20.625 22.5 20.625C22.0027 20.625 21.5258 20.8226 21.1742 21.1742C20.8225 21.5258 20.625 22.0027 20.625 22.5Z" stroke="#FF6961" stroke-width="3" stroke-linecap="round" stroke-linejoin="round"/>
</svg>
